<mxfile host="app.diagrams.net" modified="2024-05-03T23:36:19.005Z" agent="Mozilla/5.0 (Macintosh; Intel Mac OS X 10_15_7) AppleWebKit/537.36 (KHTML, like Gecko) Chrome/116.0.0.0 Safari/537.36" etag="PlWTLFXJBMcrgHDFuyDr" version="24.3.1" type="github">
  <diagram name="Page-1" id="zwDCBRMIQHhDR9st8Aac">
    <mxGraphModel dx="916" dy="540" grid="1" gridSize="10" guides="1" tooltips="1" connect="1" arrows="1" fold="1" page="1" pageScale="1" pageWidth="850" pageHeight="1100" math="0" shadow="0">
      <root>
        <mxCell id="0" />
        <mxCell id="1" parent="0" />
        <mxCell id="XcBPm9HKIEAwmyqkvmFW-1" value="CLI commands" style="text;html=1;align=center;verticalAlign=middle;whiteSpace=wrap;rounded=0;" vertex="1" parent="1">
          <mxGeometry x="80" y="120" width="140" height="30" as="geometry" />
        </mxCell>
        <mxCell id="XcBPm9HKIEAwmyqkvmFW-4" style="edgeStyle=orthogonalEdgeStyle;rounded=0;orthogonalLoop=1;jettySize=auto;html=1;entryX=0;entryY=0.5;entryDx=0;entryDy=0;" edge="1" parent="1" source="XcBPm9HKIEAwmyqkvmFW-2" target="XcBPm9HKIEAwmyqkvmFW-3">
          <mxGeometry relative="1" as="geometry" />
        </mxCell>
        <mxCell id="XcBPm9HKIEAwmyqkvmFW-2" value="vertical: &amp;lt;vertical-name&amp;gt;&amp;nbsp;" style="text;html=1;align=center;verticalAlign=middle;resizable=0;points=[];autosize=1;strokeColor=none;fillColor=none;" vertex="1" parent="1">
          <mxGeometry x="70" y="158" width="160" height="30" as="geometry" />
        </mxCell>
        <mxCell id="XcBPm9HKIEAwmyqkvmFW-5" style="edgeStyle=orthogonalEdgeStyle;rounded=0;orthogonalLoop=1;jettySize=auto;html=1;entryX=0;entryY=0.5;entryDx=0;entryDy=0;entryPerimeter=0;" edge="1" parent="1" source="XcBPm9HKIEAwmyqkvmFW-3" target="XcBPm9HKIEAwmyqkvmFW-6">
          <mxGeometry relative="1" as="geometry">
            <mxPoint x="390" y="173" as="targetPoint" />
          </mxGeometry>
        </mxCell>
        <mxCell id="XcBPm9HKIEAwmyqkvmFW-3" value="REST API from nest.js" style="text;html=1;align=center;verticalAlign=middle;whiteSpace=wrap;rounded=0;" vertex="1" parent="1">
          <mxGeometry x="280" y="158" width="60" height="30" as="geometry" />
        </mxCell>
        <mxCell id="XcBPm9HKIEAwmyqkvmFW-11" style="edgeStyle=orthogonalEdgeStyle;rounded=0;orthogonalLoop=1;jettySize=auto;html=1;" edge="1" parent="1" source="XcBPm9HKIEAwmyqkvmFW-6">
          <mxGeometry relative="1" as="geometry">
            <mxPoint x="310" y="140" as="targetPoint" />
            <Array as="points">
              <mxPoint x="475" y="70" />
              <mxPoint x="310" y="70" />
            </Array>
          </mxGeometry>
        </mxCell>
        <mxCell id="XcBPm9HKIEAwmyqkvmFW-25" style="edgeStyle=orthogonalEdgeStyle;rounded=0;orthogonalLoop=1;jettySize=auto;html=1;" edge="1" parent="1" source="XcBPm9HKIEAwmyqkvmFW-6">
          <mxGeometry relative="1" as="geometry">
            <mxPoint x="590" y="173" as="targetPoint" />
          </mxGeometry>
        </mxCell>
        <mxCell id="XcBPm9HKIEAwmyqkvmFW-6" value="&lt;div&gt;jekyll site&amp;nbsp;&lt;/div&gt;&lt;div&gt;from template&lt;/div&gt;" style="text;html=1;align=center;verticalAlign=middle;resizable=0;points=[];autosize=1;strokeColor=none;fillColor=none;" vertex="1" parent="1">
          <mxGeometry x="425" y="153" width="100" height="40" as="geometry" />
        </mxCell>
        <mxCell id="XcBPm9HKIEAwmyqkvmFW-13" style="edgeStyle=orthogonalEdgeStyle;rounded=0;orthogonalLoop=1;jettySize=auto;html=1;" edge="1" parent="1" source="XcBPm9HKIEAwmyqkvmFW-10">
          <mxGeometry relative="1" as="geometry">
            <mxPoint x="282.5" y="380" as="targetPoint" />
          </mxGeometry>
        </mxCell>
        <mxCell id="XcBPm9HKIEAwmyqkvmFW-10" value="post &amp;lt;vertical-name&amp;gt;&amp;nbsp;&lt;div&gt;&amp;lt;post seed&amp;gt;&lt;/div&gt;" style="text;html=1;align=center;verticalAlign=middle;resizable=0;points=[];autosize=1;strokeColor=none;fillColor=none;" vertex="1" parent="1">
          <mxGeometry x="82.5" y="360" width="140" height="40" as="geometry" />
        </mxCell>
        <mxCell id="XcBPm9HKIEAwmyqkvmFW-12" value="add created vertical name ï¼† file location to&amp;nbsp;&lt;div&gt;VERTICAL_LIST&lt;/div&gt;" style="text;html=1;align=center;verticalAlign=middle;whiteSpace=wrap;rounded=0;" vertex="1" parent="1">
          <mxGeometry x="330" y="30" width="140" height="30" as="geometry" />
        </mxCell>
        <mxCell id="XcBPm9HKIEAwmyqkvmFW-21" style="edgeStyle=orthogonalEdgeStyle;rounded=0;orthogonalLoop=1;jettySize=auto;html=1;" edge="1" parent="1" source="XcBPm9HKIEAwmyqkvmFW-14" target="XcBPm9HKIEAwmyqkvmFW-15">
          <mxGeometry relative="1" as="geometry" />
        </mxCell>
        <mxCell id="XcBPm9HKIEAwmyqkvmFW-14" value="REST API from nest.js" style="text;html=1;align=center;verticalAlign=middle;whiteSpace=wrap;rounded=0;" vertex="1" parent="1">
          <mxGeometry x="282.5" y="365" width="60" height="30" as="geometry" />
        </mxCell>
        <mxCell id="XcBPm9HKIEAwmyqkvmFW-23" style="edgeStyle=orthogonalEdgeStyle;rounded=0;orthogonalLoop=1;jettySize=auto;html=1;" edge="1" parent="1" source="XcBPm9HKIEAwmyqkvmFW-15">
          <mxGeometry relative="1" as="geometry">
            <mxPoint x="592.5" y="380" as="targetPoint" />
          </mxGeometry>
        </mxCell>
        <mxCell id="XcBPm9HKIEAwmyqkvmFW-15" value="LLM API" style="text;html=1;align=center;verticalAlign=middle;resizable=0;points=[];autosize=1;strokeColor=none;fillColor=none;" vertex="1" parent="1">
          <mxGeometry x="442.5" y="365" width="70" height="30" as="geometry" />
        </mxCell>
        <mxCell id="XcBPm9HKIEAwmyqkvmFW-16" value="calls" style="text;html=1;align=center;verticalAlign=middle;resizable=0;points=[];autosize=1;strokeColor=none;fillColor=none;" vertex="1" parent="1">
          <mxGeometry x="225" y="140" width="50" height="30" as="geometry" />
        </mxCell>
        <mxCell id="XcBPm9HKIEAwmyqkvmFW-17" value="creates" style="text;html=1;align=center;verticalAlign=middle;resizable=0;points=[];autosize=1;strokeColor=none;fillColor=none;" vertex="1" parent="1">
          <mxGeometry x="350" y="138" width="60" height="30" as="geometry" />
        </mxCell>
        <mxCell id="XcBPm9HKIEAwmyqkvmFW-18" value="&lt;div&gt;could later add:&lt;/div&gt;specify color&lt;div&gt;branding&lt;/div&gt;&lt;div&gt;theme&lt;/div&gt;&lt;div&gt;&lt;br&gt;&lt;/div&gt;&lt;div&gt;on creation via LLM API&lt;/div&gt;" style="text;html=1;align=center;verticalAlign=middle;resizable=0;points=[];autosize=1;strokeColor=none;fillColor=none;" vertex="1" parent="1">
          <mxGeometry y="430" width="150" height="100" as="geometry" />
        </mxCell>
        <mxCell id="XcBPm9HKIEAwmyqkvmFW-20" value="calls" style="text;html=1;align=center;verticalAlign=middle;resizable=0;points=[];autosize=1;strokeColor=none;fillColor=none;" vertex="1" parent="1">
          <mxGeometry x="222.5" y="350" width="50" height="30" as="geometry" />
        </mxCell>
        <mxCell id="XcBPm9HKIEAwmyqkvmFW-22" value="calls w/ prompt" style="text;html=1;align=center;verticalAlign=middle;resizable=0;points=[];autosize=1;strokeColor=none;fillColor=none;" vertex="1" parent="1">
          <mxGeometry x="342.5" y="350" width="100" height="30" as="geometry" />
        </mxCell>
        <mxCell id="XcBPm9HKIEAwmyqkvmFW-24" value="Nest.js service&lt;div&gt;puts result into jekyll post file&lt;/div&gt;&lt;div&gt;&amp;nbsp;in file directory&lt;/div&gt;" style="text;html=1;align=center;verticalAlign=middle;resizable=0;points=[];autosize=1;strokeColor=none;fillColor=none;" vertex="1" parent="1">
          <mxGeometry x="592.5" y="353" width="180" height="60" as="geometry" />
        </mxCell>
        <mxCell id="XcBPm9HKIEAwmyqkvmFW-28" style="edgeStyle=orthogonalEdgeStyle;rounded=0;orthogonalLoop=1;jettySize=auto;html=1;" edge="1" parent="1" source="XcBPm9HKIEAwmyqkvmFW-26">
          <mxGeometry relative="1" as="geometry">
            <mxPoint x="180" y="230" as="targetPoint" />
            <Array as="points">
              <mxPoint x="635" y="220" />
              <mxPoint x="636" y="220" />
            </Array>
          </mxGeometry>
        </mxCell>
        <mxCell id="XcBPm9HKIEAwmyqkvmFW-26" value="Namecheap&lt;div&gt;API&lt;/div&gt;" style="text;html=1;align=center;verticalAlign=middle;resizable=0;points=[];autosize=1;strokeColor=none;fillColor=none;" vertex="1" parent="1">
          <mxGeometry x="590" y="153" width="90" height="40" as="geometry" />
        </mxCell>
        <mxCell id="XcBPm9HKIEAwmyqkvmFW-27" value="registers domain w/&amp;nbsp;&lt;div&gt;&amp;lt;vertical-name&amp;gt;.&amp;lt;anything&amp;gt;&lt;/div&gt;" style="text;html=1;align=center;verticalAlign=middle;resizable=0;points=[];autosize=1;strokeColor=none;fillColor=none;" vertex="1" parent="1">
          <mxGeometry x="495" y="123" width="170" height="40" as="geometry" />
        </mxCell>
        <mxCell id="XcBPm9HKIEAwmyqkvmFW-29" value="returns" style="text;html=1;align=center;verticalAlign=middle;resizable=0;points=[];autosize=1;strokeColor=none;fillColor=none;" vertex="1" parent="1">
          <mxGeometry x="360" y="238" width="60" height="30" as="geometry" />
        </mxCell>
        <mxCell id="XcBPm9HKIEAwmyqkvmFW-30" value="checkout&amp;nbsp;&lt;div&gt;fastly&lt;/div&gt;&lt;div&gt;server&lt;/div&gt;&lt;div&gt;&lt;br&gt;&lt;/div&gt;&lt;div&gt;10 line code API&lt;/div&gt;" style="text;html=1;align=center;verticalAlign=middle;resizable=0;points=[];autosize=1;strokeColor=none;fillColor=none;" vertex="1" parent="1">
          <mxGeometry width="110" height="90" as="geometry" />
        </mxCell>
        <mxCell id="XcBPm9HKIEAwmyqkvmFW-31" value="will need some&amp;nbsp;&lt;div&gt;prompt engineering here&lt;/div&gt;" style="text;html=1;align=center;verticalAlign=middle;resizable=0;points=[];autosize=1;strokeColor=none;fillColor=none;" vertex="1" parent="1">
          <mxGeometry x="315" y="423" width="150" height="40" as="geometry" />
        </mxCell>
      </root>
    </mxGraphModel>
  </diagram>
</mxfile>
